<?xml version="1.0" encoding="UTF-8" standalone="no" ?>
<svg xmlns="http://www.w3.org/2000/svg" viewBox="0 0 750 1000"><title>pomaranczaZasób 1</title><g id="Warstwa_2" data-name="Warstwa 2"><g id="Warstwa_2-2" data-name="Warstwa 2"><rect width="750" height="1000" style="fill:#ffd599"/></g><g id="Warstwa_1-2" data-name="Warstwa 1"><circle cx="385.27" cy="434.57" r="201.72" style="opacity:0.2"/><circle cx="374.88" cy="421.45" r="201.72" style="fill:#fca110"/><path d="M576.85,421.45c0,111.41-90.32,201.72-201.73,201.72a201.55,201.55,0,0,1-168.52-90.8,200.7,200.7,0,0,0,99.56,26.25c111.41,0,201.72-90.32,201.72-201.73A200.88,200.88,0,0,0,474.68,246,201.63,201.63,0,0,1,576.85,421.45Z" style="fill:#ed1c24;opacity:0.2"/><path d="M576.85,421.45c0,111.41-90.32,201.72-201.73,201.72a201.55,201.55,0,0,1-168.52-90.8,200.7,200.7,0,0,0,99.56,26.25c111.41,0,201.72-90.32,201.72-201.73A200.88,200.88,0,0,0,474.68,246,201.63,201.63,0,0,1,576.85,421.45Z" style="opacity:0"/><path d="M507.8,356.85c0,111.41-90.31,201.73-201.72,201.73a200.7,200.7,0,0,1-99.56-26.25,201.2,201.2,0,0,1-18.29-34.68,201.46,201.46,0,0,0,67.85,11.69c111.41,0,201.72-90.32,201.72-201.73a201.19,201.19,0,0,0-14.91-76.24,201.05,201.05,0,0,1,31.71,14.56A200.88,200.88,0,0,1,507.8,356.85Z" style="fill:#ed1c24;opacity:0.1"/><path d="M507.8,356.85c0,111.41-90.31,201.73-201.72,201.73a200.7,200.7,0,0,1-99.56-26.25,201.2,201.2,0,0,1-18.29-34.68,201.46,201.46,0,0,0,67.85,11.69c111.41,0,201.72-90.32,201.72-201.73a201.19,201.19,0,0,0-14.91-76.24,201.05,201.05,0,0,1,31.71,14.56A200.88,200.88,0,0,1,507.8,356.85Z" style="fill:#ea7f0a;opacity:0.1"/><path d="M383.08,243.77c7.95,2.83,8.35,2.15,8.37,2.08h0l3.66-6s-8.11-53.58-30.35-65.49c-8.11,4.54-9.87,10-9.87,10S396.46,228.53,383.08,243.77Z" style="opacity:0.2"/><path d="M576.85,421.44c0,111.41-90.31,201.73-201.72,201.73q-3.28,0-6.56-.11a201,201,0,0,1-61.29-11.58q-7.84-2.82-15.39-6.23-2-5.32-3.63-10.79a201.28,201.28,0,0,0,62.86,10c111.41,0,201.72-90.32,201.72-201.73A201.5,201.5,0,0,0,544,343.5q-2.65-8.69-6.07-17a201.69,201.69,0,0,0-51.23-73.12,201.41,201.41,0,0,1,90.15,168.08Z" style="opacity:0.1"/><path d="M253,307.79c5-5.69,8.62-5.72,9.82-5.62,5.21.42,9.66,6.64,11.24,11.93,4.09,13.77-11.75,19.58-19.62,45.89-4.68,15.65-2.75,25.85-11.52,31.68-.75.5-8,5.19-13.09,2.46C215,386.14,237.68,325.1,253,307.79Z" style="fill:#fff;opacity:0.3"/><path d="M379.7,243.77c7.94,2.83,8.35,2.15,8.37,2.08h0l3.65-6s-8.1-53.58-30.35-65.49c-8.1,4.54-9.86,10-9.86,10S393.08,228.53,379.7,243.77Z" style="fill:#39b54a"/><circle cx="324.86" cy="338.26" r="1.98" style="fill:#333;opacity:0.5"/><circle cx="409.46" cy="309.1" r="1.62" style="fill:#333;opacity:0.5"/><circle cx="343.22" cy="289.66" r="1.62" style="fill:#333;opacity:0.5"/><circle cx="326.53" cy="414.99" r="1.67" style="fill:#333;opacity:0.5"/><path d="M263.84,436.91v0Z" style="fill:#333;opacity:0.5"/><circle cx="195.03" cy="423.2" r="1.75" style="fill:#333;opacity:0.5"/><circle cx="275.81" cy="270.37" r="1.05" style="fill:#333;opacity:0.5"/><circle cx="484.16" cy="332.68" r="1.44" style="fill:#333;opacity:0.5"/><circle cx="336.38" cy="514.66" r="1.26" style="fill:#333;opacity:0.5"/><circle cx="433.57" cy="442.54" r="1.02" style="fill:#333;opacity:0.5"/><circle cx="393.41" cy="374.69" r="1.69" style="fill:#333;opacity:0.5"/><circle cx="283.64" cy="578.56" r="1.08" style="fill:#333;opacity:0.5"/><circle cx="260.6" cy="524.56" r="1.08" style="fill:#333;opacity:0.5"/><circle cx="499.1" cy="470.02" r="1.26" style="fill:#333;opacity:0.5"/><circle cx="289.35" cy="365.46" r="1.1" style="fill:#333;opacity:0.5"/><path d="M434.6,555.07v0Z" style="fill:#333;opacity:0.5"/><circle cx="397.3" cy="473.47" r="2.19" style="fill:#333;opacity:0.5"/><circle cx="555.44" cy="452.92" r="2.16" style="fill:#333;opacity:0.5"/><circle cx="526.1" cy="545.26" r="0.9" style="fill:#333;opacity:0.5"/><circle cx="420.21" cy="232.94" r="1.57" style="fill:#333;opacity:0.5"/></g></g></svg>