<svg xmlns="http://www.w3.org/2000/svg" viewBox="0 0 750 1000"><title>sliwkaZasób 1</title><g id="Warstwa_2" data-name="Warstwa 2"><g id="Warstwa_2-2" data-name="Warstwa 2"><rect width="750" height="1000" style="fill:#e8c5ff"/></g><g id="Warstwa_1-2" data-name="Warstwa 1"><path d="M508.67,465.22c-2.28-31-13.94-57.89-29.4-79.42-1.1-1.54-2.23-3.05-3.37-4.53q-3.42-4.45-7-8.56c-2.4-2.74-4.86-5.37-7.35-7.87-16.21-16.29-34-27.59-48.81-32.89a39,39,0,0,0-22.68-1.1c-1.09.28-2.15.6-3.22.92l2.29-3.75s-13-86.2-48.82-105.35c-13,7.29-15.87,16-15.87,16S386.7,305,371.66,331.6a76.38,76.38,0,0,0-16.59-1.8C296.78,330,249.7,397,249.91,479.45c.1,37.34,14.16,69.87,33,95l-.38.27c18.41,24.79,41.49,42.45,60.53,50.5A43.58,43.58,0,0,0,367.37,628a93.38,93.38,0,0,0,34.86-13.51,68.16,68.16,0,0,0,15.43,1.57c23.7.45,69.39-10.94,89.22-99.66-.34.43-.68.9-1,1.35,1.11-5.93,2-12,2.54-18.27v-.06q.56-6.21.74-12.59A212.59,212.59,0,0,0,508.67,465.22Z" style="opacity:0.2"/><path d="M499.77,495.05a.15.15,0,0,1,0,.06C494,558.7,458.91,608.16,413,611.52a68.84,68.84,0,0,1-28-3.79c-41.74-14.5-75.33-67.36-80.12-132.57-5.47-74.48,23.26-135.26,76.45-148.7a39,39,0,0,1,22.68,1.1c36.52,13.06,90.76,62.4,96,133.27A211.88,211.88,0,0,1,499.77,495.05Z" style="fill:#7c0b7f"/><path d="M499.77,495.05a.15.15,0,0,1,0,.06C494,558.7,458.91,608.16,413,611.52a68.84,68.84,0,0,1-28-3.79c-41.74-14.5-75.33-67.36-80.12-132.57-5.47-74.48,23.26-135.26,76.45-148.7a39,39,0,0,1,22.68,1.1c36.52,13.06,90.76,62.4,96,133.27A211.88,211.88,0,0,1,499.77,495.05Z" style="opacity:0.1"/><path d="M361.09,329.94c12.79,4.55,13.44,3.46,13.47,3.35v0l5.88-9.64s-13-86.2-48.82-105.35c-13,7.3-15.87,16-15.87,16S382.62,305.42,361.09,329.94Z" style="fill:#754c24"/><path d="M452.36,474.51c.2,77.51-35.36,138.34-93.65,148.35a43.56,43.56,0,0,1-24.32-2.79c-38.31-16.2-92.93-71.25-93.13-145-.21-82.5,46.87-149.49,105.16-149.64S452.14,392,452.36,474.51Z" style="fill:#7c0b7f"/><path d="M385.72,336.78c13.6,49.09,10.34,98.69-20.87,145.14-24,38.25-57.05,64.1-91,88.43,18.41,24.78,41.48,42.44,60.53,50.49a43.68,43.68,0,0,0,24.33,2.8c58.28-10,93.84-70.84,93.64-148.36C452.19,412.43,424.62,358.73,385.72,336.78Z" style="opacity:0.1"/><path d="M452.36,474.51c-.16-61.42-26.51-114.1-64-137a228.08,228.08,0,0,1,30.92,51.59,233.21,233.21,0,0,1,18.55,83.4c2,62.53-22.79,109.84-35.16,130.2C434.34,576.85,452.5,530,452.36,474.51Z" style="opacity:0.2"/><path d="M300,364.42c5-5.68,8.63-5.71,9.83-5.61,5.09.41,9.79,6.41,11.23,11.93,4.48,17.08-23.6,24-28.07,52.65-1,6.44-1.29,17-9.13,23.87-2.13,1.87-4.84,4.25-7,3.51C267.16,447.49,282.89,383.68,300,364.42Z" style="fill:#fff;opacity:0.3"/><path d="M403.25,602.22l-9.1,7.4s76.7,24.91,104.08-97.59C480.33,534.85,467.26,585.36,403.25,602.22Z" style="opacity:0.2"/></g></g></svg>