<?xml version="1.0" encoding="UTF-8" standalone="no" ?>
<svg xmlns="http://www.w3.org/2000/svg" xmlns:xlink="http://www.w3.org/1999/xlink" viewBox="0 0 500 500"><defs><linearGradient id="Gradient_bez_nazwy_12" x1="244.67" y1="218.58" x2="244.67" y2="458.74" gradientUnits="userSpaceOnUse"><stop offset="0" stop-color="#fcee21"/><stop offset="0.08" stop-color="#fcee21" stop-opacity="0.86"/><stop offset="0.22" stop-color="#fcee21" stop-opacity="0.64"/><stop offset="0.36" stop-color="#fcee21" stop-opacity="0.44"/><stop offset="0.5" stop-color="#fcee21" stop-opacity="0.28"/><stop offset="0.63" stop-color="#fcee21" stop-opacity="0.16"/><stop offset="0.76" stop-color="#fcee21" stop-opacity="0.07"/><stop offset="0.89" stop-color="#fcee21" stop-opacity="0.02"/><stop offset="1" stop-color="#fcee21" stop-opacity="0"/></linearGradient></defs><title>meble_ikonkaZasób 3</title><g style="isolation:isolate"><g id="Warstwa_2" data-name="Warstwa 2"><g id="Warstwa_2-2" data-name="Warstwa 2"><rect width="500" height="500" style="fill:none"/></g><g id="Warstwa_1-2" data-name="Warstwa 1"><rect x="238.32" y="218.58" width="12.7" height="229.65" style="fill:#9b9b9b"/><rect x="234.6" y="106.91" width="20.18" height="20.18" style="fill:#9b9b9b"/><polygon points="270.52 208.84 268.83 218.58 266.04 234.64 223.32 234.64 220.53 218.58 218.84 208.84 270.52 208.84" style="fill:#9b9b9b"/><rect x="190.26" y="448.23" width="108.83" height="10.52" style="fill:#9b9b9b"/><polygon points="344.95 218.58 144.41 218.58 151.38 114.16 337.99 114.16 344.95 218.58" style="fill:#92ccd2"/><polygon points="251.03 448.23 299.09 448.23 299.09 458.74 244.67 458.74 244.67 106.92 254.77 106.92 254.77 114.16 337.99 114.16 344.95 218.58 268.83 218.58 266.04 234.64 251.03 234.64 251.03 448.23" style="opacity:0.2"/><polygon points="358.04 458.74 131.31 458.74 144.41 218.58 344.94 218.58 358.04 458.74" style="opacity:0.5;mix-blend-mode:lighten;fill:url(#Gradient_bez_nazwy_12)"/></g></g></g></svg>