<svg xmlns="http://www.w3.org/2000/svg" viewBox="0 0 750 1000"><title>truskawkaZasób 1</title><g id="Warstwa_2" data-name="Warstwa 2"><g id="Warstwa_2-2" data-name="Warstwa 2"><rect width="750" height="1000" style="fill:#ff9c9c"/></g><g id="Warstwa_1-2" data-name="Warstwa 1"><path d="M440,306.94s-9.71-.15-24.3,0c-3.68,7-6.37,11.4-6.37,11.4l-27.84-10.67c-27.3,1-58,3.14-77.67,7.76,0,0-43.16-74.82-12.79-75.84a45.41,45.41,0,0,1,22.7,5.09c1-23.48,5.68-43.64,20-36.91a41.1,41.1,0,0,1,12.81,9.94c6.63-18.33,16.85-32.52,32-22.14,14.88,10.22,23,25.08,27.45,38.26,11.93-9.85,22.43-14.22,27.19-5.26a29.31,29.31,0,0,1,3.11,11.71c8.14-5.13,15.83-6.72,18.77,2.38C462.36,265.14,440,306.94,440,306.94Z" style="opacity:0.2"/><path d="M527.54,562.85c-23.95,59.84-57,138.82-117.73,145.37-65.41,7.06-122-74.66-144.46-107.1-31.12-44.94-41.58-85.88-47-107.88-6.85-27.88-31.48-125.9,11.77-158.17,6.92-5.16,16.84-9.33,34.81-16.89a349.52,349.52,0,0,1,59.93-19.27,326.75,326.75,0,0,1,59.76-7.41,320,320,0,0,1,47.73,2c29.23,3.52,48,5.27,68.59,16.44a138.08,138.08,0,0,1,31.56,24.76C572.07,377.51,560.4,480.78,527.54,562.85Z" style="opacity:0.2"/><path d="M309.61,287.16s-13.53-109.72,17.24-95.26,44.57,84,44.57,84" style="fill:#417009"/><path d="M344.9,280.4s67-94.79,81.37-67.7-23.81,89.78-23.81,89.78" style="fill:#417009"/><path d="M517,559.13C493.07,619,460,698,399.29,704.5c-65.41,7.06-122-74.67-144.46-107.1-31.12-44.95-41.58-85.88-47-107.89-6.84-27.87-31.48-125.9,11.78-158.16,6.91-5.17,16.84-9.34,34.8-16.9a349.8,349.8,0,0,1,59.94-19.27,327.54,327.54,0,0,1,59.76-7.41,323,323,0,0,1,47.73,2c29.22,3.52,48,5.27,68.59,16.44A138.08,138.08,0,0,1,522,331C561.55,373.79,549.88,477.05,517,559.13Z" style="fill:#d30505"/><path d="M296.93,299.56s-43.14-74.82-12.77-75.84,44.95,26.61,44.95,26.61,9.72-93.16,42.52-70.63,32.8,67.56,32.8,67.56,36.44-43,43.73-20.47-15,64.33-15,64.33S339.31,289.6,296.93,299.56Z" style="fill:#4e9609"/><path d="M463.38,327.52c.82-5.32,6-9.17,12-9,11,.25,30.36,4,38.72,25.48,10.71,27.58,15.07,55.16,4.61,71.83-3.47,5.53-12.55,5.43-16.08-.07-3.22-5-5.28-11.7-6.15-15a16.26,16.26,0,0,1-.52-3.39c-.27-5.18-2.54-23.5-20.65-42.67C464.14,342.87,462.45,333.64,463.38,327.52Z" style="fill:#fff;opacity:0.2"/><path d="M497.43,605.34c-22.27,48-52.31,94-98.06,99-65.42,7.06-122-74.66-144.48-107.11a300,300,0,0,1-40-82.26v0C269.07,634.31,362.13,692,429.05,670.54,440.54,666.85,471.79,654.19,497.43,605.34Z" style="opacity:0.2"/><path d="M358.62,608.59s1.76,2.61,3.11.31,2.34-6.78,1.36-8.51-4.06-1.49-5,0S358.62,608.59,358.62,608.59Z" style="opacity:0.1"/><path d="M357.48,607.5s1.77,2.61,3.12.31,2.34-6.79,1.36-8.51-4.07-1.5-5,0S357.48,607.5,357.48,607.5Z" style="fill:#e8c325"/><path d="M317.55,567.75s1.76,2.61,3.12.31,2.34-6.78,1.35-8.51-4.06-1.49-5,0S317.55,567.75,317.55,567.75Z" style="opacity:0.1"/><path d="M316.42,566.66s1.76,2.61,3.12.31,2.33-6.79,1.35-8.51-4.06-1.5-5.05,0S316.42,566.66,316.42,566.66Z" style="fill:#e8c325"/><path d="M280.05,523s1.76,2.61,3.12.31,2.34-6.78,1.35-8.51-4.06-1.49-5,0S280.05,523,280.05,523Z" style="opacity:0.1"/><path d="M278.92,522s1.76,2.61,3.12.31,2.34-6.78,1.35-8.51-4.06-1.49-5.05,0S278.92,522,278.92,522Z" style="fill:#e8c325"/><path d="M254.11,479.36s1.77,2.61,3.12.31,2.34-6.78,1.36-8.51-4.07-1.49-5,0S254.11,479.36,254.11,479.36Z" style="opacity:0.1"/><path d="M253,478.27s1.77,2.61,3.12.31,2.34-6.78,1.36-8.51-4.07-1.49-5,0S253,478.27,253,478.27Z" style="fill:#e8c325"/><path d="M282.37,430.4s1.76,2.61,3.12.31,2.34-6.79,1.35-8.51-4.06-1.49-5,0S282.37,430.4,282.37,430.4Z" style="opacity:0.1"/><path d="M281.24,429.31s1.76,2.6,3.12.3,2.34-6.78,1.35-8.5-4.06-1.5-5,0S281.24,429.31,281.24,429.31Z" style="fill:#e8c325"/><path d="M241.4,403.25s1.77,2.6,3.12.3,2.34-6.78,1.36-8.5-4.07-1.5-5,0S241.4,403.25,241.4,403.25Z" style="opacity:0.1"/><path d="M240.27,402.15s1.77,2.61,3.12.31,2.34-6.78,1.36-8.51-4.07-1.49-5.05,0S240.27,402.15,240.27,402.15Z" style="fill:#e8c325"/><path d="M289.27,348.93s1.77,2.61,3.12.31,2.34-6.79,1.36-8.51-4.07-1.49-5.05,0S289.27,348.93,289.27,348.93Z" style="opacity:0.1"/><path d="M288.14,347.84s1.77,2.6,3.12.3,2.34-6.78,1.36-8.5-4.07-1.5-5.05,0S288.14,347.84,288.14,347.84Z" style="fill:#e8c325"/><path d="M337.61,379.69s1.77,2.61,3.12.31,2.34-6.78,1.35-8.51-4.06-1.49-5,0S337.61,379.69,337.61,379.69Z" style="opacity:0.1"/><path d="M336.48,378.6s1.76,2.61,3.12.31,2.34-6.78,1.35-8.51-4.06-1.49-5,0S336.48,378.6,336.48,378.6Z" style="fill:#e8c325"/><path d="M400.32,343.05s1.76,2.61,3.12.31,2.33-6.78,1.35-8.51-4.06-1.49-5.05,0S400.32,343.05,400.32,343.05Z" style="opacity:0.1"/><path d="M399.19,342s1.76,2.61,3.11.31,2.34-6.79,1.36-8.51-4.06-1.5-5.05,0S399.19,342,399.19,342Z" style="fill:#e8c325"/><path d="M451.65,369s1.77,2.61,3.12.31,2.34-6.79,1.36-8.51-4.07-1.5-5.05,0S451.65,369,451.65,369Z" style="opacity:0.1"/><path d="M450.52,367.94s1.77,2.6,3.12.3,2.34-6.78,1.36-8.5-4.07-1.5-5.05,0S450.52,367.94,450.52,367.94Z" style="fill:#e8c325"/><path d="M365.52,425.62s1.76,2.6,3.12.3,2.34-6.78,1.35-8.51-4.06-1.49-5,0S365.52,425.62,365.52,425.62Z" style="opacity:0.1"/><path d="M364.39,424.52s1.76,2.61,3.12.31,2.34-6.78,1.35-8.51-4.06-1.49-5.05,0S364.39,424.52,364.39,424.52Z" style="fill:#e8c325"/><path d="M363.2,490s1.76,2.6,3.12.31,2.34-6.79,1.35-8.51-4.06-1.5-5.05,0S363.2,490,363.2,490Z" style="opacity:0.1"/><path d="M362.07,488.94s1.76,2.6,3.12.3,2.34-6.78,1.35-8.5-4.06-1.5-5.05,0S362.07,488.94,362.07,488.94Z" style="fill:#e8c325"/><path d="M421.19,545.14s1.77,2.6,3.12.3,2.34-6.78,1.36-8.5-4.07-1.5-5.05,0S421.19,545.14,421.19,545.14Z" style="opacity:0.1"/><path d="M420.06,544s1.77,2.61,3.12.31,2.34-6.78,1.36-8.51-4.07-1.49-5.05,0S420.06,544,420.06,544Z" style="fill:#e8c325"/><path d="M474.13,556.89s1.77,2.61,3.12.31,2.34-6.78,1.36-8.51-4.07-1.49-5.05,0S474.13,556.89,474.13,556.89Z" style="opacity:0.1"/><path d="M473,555.8s1.77,2.61,3.12.31,2.34-6.79,1.36-8.51-4.07-1.49-5.05,0S473,555.8,473,555.8Z" style="fill:#e8c325"/><path d="M442.35,620.35s1.77,2.6,3.12.31,2.34-6.79,1.35-8.51-4.06-1.5-5,0S442.35,620.35,442.35,620.35Z" style="opacity:0.1"/><path d="M441.22,619.26s1.76,2.6,3.12.3,2.34-6.78,1.35-8.5-4.06-1.5-5.05,0S441.22,619.26,441.22,619.26Z" style="fill:#e8c325"/><path d="M428.1,446.62s1.76,2.61,3.12.31,2.34-6.79,1.35-8.51-4.06-1.5-5.05,0S428.1,446.62,428.1,446.62Z" style="opacity:0.1"/><path d="M427,445.53s1.76,2.6,3.11.3,2.34-6.78,1.36-8.5-4.06-1.5-5.05,0S427,445.53,427,445.53Z" style="fill:#e8c325"/><path d="M489.06,484.15s1.77,2.61,3.12.31,2.34-6.79,1.35-8.51-4.06-1.49-5,0S489.06,484.15,489.06,484.15Z" style="opacity:0.1"/><path d="M487.93,483.06s1.76,2.6,3.12.3,2.34-6.78,1.35-8.5-4.06-1.5-5,0S487.93,483.06,487.93,483.06Z" style="fill:#e8c325"/></g></g></svg>