<?xml version="1.0" encoding="UTF-8" standalone="no" ?>
<svg xmlns="http://www.w3.org/2000/svg" viewBox="0 0 750 1000"><title>wisniaZasób 1</title><g id="Warstwa_2" data-name="Warstwa 2"><g id="Warstwa_2-2" data-name="Warstwa 2"><rect width="750" height="1000" style="fill:#ffa6a6"/></g><g id="Warstwa_1-2" data-name="Warstwa 1"><path d="M375.44,358.38c8.24,17.45,8.2,15.19,8.18,14.94v-.05l-.31-19.92s-7.86-94.64-116.39-207.24c-7.42,6.81-6.18,8-6.18,8S367,241.82,375.44,358.38Z" style="opacity:0.1"/><path d="M371.8,358.38c8.24,17.45,8.2,15.19,8.18,14.94v-.05l-.31-19.92s-7.86-94.64-116.39-207.24c-7.42,6.81-6.18,8-6.18,8S363.36,241.82,371.8,358.38Z" style="fill:#754c24"/><path d="M508.89,413.43c22,39.08,24.49,86,9,128.07-18.83,51-46.16,89.23-94.48,104a136,136,0,0,1-32.44,5.64,114.6,114.6,0,0,1-28-1c-46.82-7.6-80.86-46-102.9-93.1C235,503.46,241.73,440,279.36,394.39c19-23,43-38.28,68-38.28a81.22,81.22,0,0,1,24.55,3.81,44.67,44.67,0,0,0,26.93,0,81.34,81.34,0,0,1,24.56-3.81C458.29,356.11,489.3,378.6,508.89,413.43Z" style="opacity:0.1"/><path d="M500.65,404.39c22,39.08,24.5,86,9,128.07-18.83,51-46.16,89.23-94.48,104a136.08,136.08,0,0,1-32.44,5.64,114.08,114.08,0,0,1-28-1c-46.82-7.6-80.86-46-102.9-93.1-25.06-53.52-18.34-117,19.29-162.59,19-23,43-38.28,68-38.28a81.16,81.16,0,0,1,24.54,3.81,44.67,44.67,0,0,0,26.93,0,81.4,81.4,0,0,1,24.57-3.81C450.06,347.07,481.07,369.56,500.65,404.39Z" style="fill:#d30505"/><path d="M354.18,378.82a16.43,16.43,0,0,0,13.44-.92,35,35,0,0,1,11.61-4c20.56-3.09,41.43,13.64,48.15,29.69,12.45,29.77-16.83,73.87-53,90.66-37,17.2-94.68,12-109.92-22.46-15.86-35.84,19.93-90.3,61-96.29C331.57,374.64,341.55,374.26,354.18,378.82Z" style="fill:#fff;opacity:0.2"/><path d="M500.42,404.54c-.58-1-1.16-2-1.76-3-16.59,63.56-40.77,127.43-98.14,168.07-15.5,11.63-33.57,22-52.94,23.25-23.35,1.94-51.82,2.42-74.38-7.4a165.33,165.33,0,0,0,26.29,29.22c33.26,12.75,72.89,10.8,104.9.13,47.78-16.79,71-73.6,91.68-120.09,10.47-21.68,13.14-45.54,13.79-69.8A146.13,146.13,0,0,0,500.42,404.54Z" style="opacity:0.1"/><path d="M510.09,424.72c-.64,24.27-3.31,48.12-13.78,69.81-20.66,46.48-43.9,103.3-91.68,120.08-32,10.67-71.64,12.62-104.9-.13,15.85,13.66,34.16,23.18,55,26.56a114.11,114.11,0,0,0,28,1,136.07,136.07,0,0,0,32.45-5.64c48.32-14.73,75.65-52.91,94.48-104C522.54,497.47,523,459.13,510.09,424.72Z" style="opacity:0.2"/><path d="M309.74,393.62c7.63-3.39,13.06-3.41,14.89-3.36,7.89.26,14.63,4,17,7.14,8.65,11.48,1.82,35.07-12.11,48.35-1.69,1.62-20.3,18.84-39.94,11.74-2.59-.94-11.43-4.13-14.94-12.25C266.79,427.11,292.67,401.22,309.74,393.62Z" style="fill:#fff;opacity:0.6"/><path d="M356,429.76a9.79,9.79,0,0,1,4.27-1,6.9,6.9,0,0,1,4.89,2c2.48,3.3.52,10.06-3.48,13.87-.49.47-5.83,5.41-11.46,3.37a7.12,7.12,0,0,1-4.29-3.51C343.64,439.37,351.06,431.94,356,429.76Z" style="fill:#fff;opacity:0.6"/><path d="M332.24,524.48c15.57-.71,26.54,2,28,7.23,1.33,4.91-5.91,11.26-10.27,14.13-28.79,19-91-8.83-91.62-30.75-.12-4.56,2.38-10.34,5.92-11.17,5.5-1.29,10.19,10.07,18.57,16.79C290.45,526.86,304.43,531.74,332.24,524.48Z" style="fill:#fff;opacity:0.1"/></g></g></svg>