<svg xmlns="http://www.w3.org/2000/svg" viewBox="0 0 750 1000"><title>jablkoZasób 1</title><g id="Warstwa_2" data-name="Warstwa 2"><g id="Warstwa_2-2" data-name="Warstwa 2"><rect width="750" height="1000" style="fill:#efda5e"/></g><g id="Warstwa_1-2" data-name="Warstwa 1"><path d="M370.56,286.16s-7.26-75.27,18.79-99c12.51,3.38,16.74,10.14,16.74,10.14s-41.21,74-17.92,90c-9.79,6.53-10.57,5.75-10.62,5.66h0Z" style="opacity:0.3"/><path d="M613.61,614.33c-34.06,58.86-73.35,83.53-91.14,93.18C518.33,709.75,435,754,398.91,725.74l-.78-.62,0,0a33.58,33.58,0,0,1-3.94-2.66c-1.54-1.21-3.17-2.68-5.06-4.19a40.43,40.43,0,0,0-10.43-4.65,42.36,42.36,0,0,0-6.33-1.3l-12.15,3.58-.48-3.49c-10.35,1.37-20,5.65-27.63,10-.94.1-1.91.23-2.9.33l-2.49,1.78c-36.71,3.11-109.73,4.2-143.15-40.5a74.5,74.5,0,0,1-11.33-22.06c2.15.84,4.31,1.66,6.5,2.46-2-6.52-3.26-13-4.61-19.62-33.87-164.33-65.33-204.64-46.59-287.61,7.07-31.27,15.84-44.62,20.26-50.63,40.11-54.62,120.49-51.06,127.6-50.65a162.74,162.74,0,0,1,72.91,22.29,155.92,155.92,0,0,1,36.45,30.39q11.16-6.09,22.29-12.15c4.28-2,68-31.25,132.87-29.87-.74-1.11-1.54-2.22-2.32-3.31,30.26.8,60.71,8.17,85.62,27.82a111.89,111.89,0,0,1,23.23,24.89C704.58,395.48,654.32,544,613.61,614.33Z" style="opacity:0.3"/><path d="M598.19,598.86c-34.06,58.86-73.35,83.52-91.14,93.17-4.14,2.24-87.49,46.47-123.56,18.24l-.78-.63,0,0a80.34,80.34,0,0,0-9-6.85,40.43,40.43,0,0,0-10.43-4.64,41.14,41.14,0,0,0-6.33-1.3,46.81,46.81,0,0,0-12.63.08c-10.35,1.37-20,5.66-27.63,10-.94.11-1.91.23-2.89.33-36.73,4.16-106.65,6.71-138.89-35.41a70.1,70.1,0,0,1-11.59-22.91c-2-6.52-3.26-13-4.61-19.62C124.81,464.91,93.35,424.6,112.09,341.63c7.07-31.27,15.84-44.61,20.26-50.63,40.11-54.61,120.49-51.06,127.6-50.64a162.54,162.54,0,0,1,72.92,22.29A156.34,156.34,0,0,1,369.32,293q11.15-6.09,22.28-12.15c4.29-2,68-31.25,132.87-29.86,30.33.64,60.93,8,85.87,27.83A111.24,111.24,0,0,1,631,300.41C689.16,380,638.9,528.54,598.19,598.86Z" style="fill:#f40303"/><path d="M595.5,595.55c-34.39,58.84-74.06,83.52-92,93.17-4,2.17-82.57,43.44-120.77,20.92l0,0a33.5,33.5,0,0,1-3.94-2.65c-1.54-1.22-3.17-2.69-5.06-4.2a38.6,38.6,0,0,0-12.6-7.17c-.88-.3-1.82-.57-2.79-.8a38.84,38.84,0,0,0-14.38-.62c-11.29,1.5-21.88,7.28-30.14,13-.87.61-1.7,1.2-2.5,1.79-36.71,3.1-109.73,4.19-143.15-40.51a74.5,74.5,0,0,1-11.33-22.06c2.15.85,4.31,1.66,6.5,2.46a321.12,321.12,0,0,0,110.4,19.34c164.12,0,297.16-121.55,297.16-271.49,0-53.62-17-103.61-46.38-145.69-.74-1.11-1.54-2.22-2.32-3.31,30.26.79,60.72,8.16,85.62,27.81A111.87,111.87,0,0,1,631,300.41C686,380.77,636,526.18,595.5,595.55Z" style="opacity:0.2"/><path d="M227.55,279c-19.73,4.35-42.63,31.94-45.22,35.06-33.54,40.42,1.64,62.56,21.39,71.22,4.41,1.93,16-1.38,20.27-5.81,3.66-3.78,7.44-8,11-12.46C276.77,315.12,256,272.68,227.55,279Z" style="fill:#fff;opacity:0.6"/><path d="M282.89,303.67c-7.36,1.62-15.89,11.91-16.86,13.07-12.51,15.07.61,23.33,8,26.55,1.64.72,6-.51,7.55-2.16,1.37-1.41,2.78-3,4.12-4.64C301.24,317.15,293.51,301.33,282.89,303.67Z" style="fill:#fff;opacity:0.6"/><path d="M262,348.69c-1.65.36-3.57,2.67-3.79,2.93-2.81,3.39.14,5.25,1.79,6a2.13,2.13,0,0,0,1.7-.49,13.88,13.88,0,0,0,.93-1.05C266.15,351.72,264.41,348.16,262,348.69Z" style="fill:#fff;opacity:0.6"/><path d="M379.44,287.38c-9.79,6.53-10.57,5.75-10.63,5.66h0l-7-6.87s-7.26-75.27,18.79-99c12.51,3.38,16.74,10.14,16.74,10.14S356.14,271.31,379.44,287.38Z"/><circle cx="235.69" cy="470.78" r="4.46" style="fill:#fff;opacity:0.3"/><circle cx="339.95" cy="380.19" r="3.85" style="fill:#fff;opacity:0.3"/><circle cx="371.72" cy="454.06" r="3.29" style="fill:#fff;opacity:0.3"/><circle cx="247.76" cy="541.68" r="2.95" style="fill:#fff;opacity:0.3"/><circle cx="338.03" cy="559.27" r="1.92" style="fill:#fff;opacity:0.3"/><circle cx="467.42" cy="417.15" r="4.44" style="fill:#fff;opacity:0.3"/><circle cx="471.22" cy="320.72" r="2.75" style="fill:#fff;opacity:0.3"/><circle cx="200.45" cy="571.42" r="2.11" style="fill:#fff;opacity:0.3"/><circle cx="295.5" cy="627.54" r="2.54" style="fill:#fff;opacity:0.3"/><circle cx="156.89" cy="374.34" r="1.69" style="fill:#fff;opacity:0.3"/><circle cx="246.29" cy="387.28" r="1.47" style="fill:#fff;opacity:0.3"/><circle cx="521.97" cy="362.59" r="3.17" style="fill:#fff;opacity:0.3"/><circle cx="482.32" cy="494.64" r="2.43" style="fill:#fff;opacity:0.3"/><circle cx="404.06" cy="592.31" r="1.98" style="fill:#fff;opacity:0.3"/><circle cx="400.39" cy="509.97" r="1.69" style="fill:#fff;opacity:0.3"/><circle cx="295.5" cy="426.24" r="2.54" style="fill:#fff;opacity:0.3"/><circle cx="152.66" cy="256.41" r="2.54" style="fill:#fff;opacity:0.3"/><g style="opacity:0.3"><path d="M329.54,302c-.15-.09-.23.4-.28.48C329.57,302.42,329.57,301.84,329.54,302Z" style="fill:#202020"/><polygon points="332.31 301.32 332.26 301.52 332.65 301.05 332.31 301.32" style="fill:#202020"/><path d="M334.63,301.27c-.3-.8-.81.21-1.25-.07l-.07-.2-.18.68C333.66,301.58,334.26,301.08,334.63,301.27Z" style="fill:#202020"/><path d="M336.25,302.82c-.16-.3.24-.33-.34,0l.07.07A1.19,1.19,0,0,1,336.25,302.82Z" style="fill:#202020"/><path d="M336,302.86c-.27.08.24.23,0,0Z" style="fill:#202020"/><path d="M337.18,302.37l-.27.38c.12.17.46.11.38.28C337.62,302.76,337.47,302.6,337.18,302.37Z" style="fill:#202020"/><path d="M337.32,301.68l-.14.17C337.24,301.92,337.29,301.93,337.32,301.68Z" style="fill:#202020"/><path d="M336.88,302.22l.3-.37c-.09-.11-.17-.37-.14.15C337,301.75,337,302,336.88,302.22Z" style="fill:#202020"/><path d="M336.64,302.15c-.24-.13-.51-.18-.25-.54C335.79,301.87,336,302.43,336.64,302.15Z" style="fill:#202020"/><path d="M334.64,300.39l-.25-.22-.16.31C334.31,300.33,334.68,300.65,334.64,300.39Z" style="fill:#202020"/><path d="M339.48,301.93c-.06-.17-.32-.38-.44-.57l-.16.29C339.06,301.71,339.35,301.7,339.48,301.93Z" style="fill:#202020"/><path d="M339,301.36c.07-.15.15-.3.21-.45C338.93,301,338.93,301.19,339,301.36Z" style="fill:#202020"/><path d="M337.08,300.78c-.12.26-.25.53-.38.79.17-.28.33-.56.49-.84Z" style="fill:#202020"/><polygon points="340.88 301.16 340.9 301.64 340.93 300.88 340.88 301.16" style="fill:#202020"/><path d="M341.72,300.49c.06.38.55.31.53.59a1.56,1.56,0,0,0,.22-1C342.38,300.37,342.15,300.52,341.72,300.49Z" style="fill:#202020"/><path d="M342.67,294.66h.16l-.36,5.08v.35a.9.9,0,0,0,0-.3l.36-5.18Z" style="fill:#202020"/><path d="M339.88,300.67a.71.71,0,0,0,.53.27l-.39-.34Z" style="fill:#202020"/><path d="M340,300.59h0l.29-.16Z" style="fill:#202020"/><path d="M339.84,300.69l0,0S339.83,300.63,339.84,300.69Z" style="fill:#202020"/><path d="M338.14,300.87c.09-.35.35-.8-.2-1C337.94,300.23,338.27,300.35,338.14,300.87Z" style="fill:#202020"/><path d="M339.37,300.23l-.4.09c.07.11.22.25.19.42Z" style="fill:#202020"/><polygon points="339.46 300 339.37 300.23 339.52 300.2 339.46 300" style="fill:#202020"/><path d="M341.62,299.69a.87.87,0,0,1,.28-.58l2.13-2.44-1.85-1.45h0v0l.95,3.47-1.22.4a2,2,0,0,0-.63.34C341.34,299.58,341.43,299.87,341.62,299.69Z" style="fill:#202020"/><path d="M340.82,300.12l0,0S340.77,300.06,340.82,300.12Z" style="fill:#202020"/><path d="M341.45,294.4l-.08.05.08,0Z" style="fill:#202020"/><path d="M341.18,299.39c-.2,0-.21.19-.2.38a1.81,1.81,0,0,1,.29-.33C341.23,299.38,341.21,299.34,341.18,299.39Z" style="fill:#202020"/><path d="M342.14,294.41a2.56,2.56,0,0,0,0,.39C342.18,294.63,342.26,294.35,342.14,294.41Z" style="fill:#202020"/><path d="M341,300.15s0,0,0,0S341,300.2,341,300.15Z" style="fill:#202020"/><path d="M341,300.15a1.19,1.19,0,0,0,0-.38,1,1,0,0,0-.14.31A.42.42,0,0,1,341,300.15Z" style="fill:#202020"/><path d="M338.1,295.55c.52-.16,1.14-.12.9.35.52.06,1.65-1,2.37-1.45a1.31,1.31,0,0,1-.73.19c-.21.14-.24.61-.74.69-.44-.13,0-.28.11-.48-.46.35-1.13,0-2,.37l.58.16C338.47,295.44,338.15,295.42,338.1,295.55Z" style="fill:#202020"/><path d="M341.5,294.66h.08c0-.1.15-.24.43-.48a5.06,5.06,0,0,0-.56.22l.12.22Z" style="fill:#202020"/><path d="M341.86,295c-.45.25-.83.14-1.11.65.29.29.51-.06.83,0-.53-.42.35,0,.24-.59a1,1,0,0,1,.35.19,1.4,1.4,0,0,1-.06-.41v0h0c0,.07,0,.1,0,.05h0l-.16.1c-.05-.22.07-.11.16-.1l.06-.05h0l-.33-.17h-.19C341.57,294.76,341.57,294.73,341.86,295Z" style="fill:#202020"/><path d="M337.81,298.71a.3.3,0,0,1,.07.1C337.89,298.74,337.88,298.69,337.81,298.71Z" style="fill:#202020"/><path d="M338.18,298.87c0,.08.05.29-.12.3s-.1-.21-.18-.36c0,.16-.15.47.23.56v-.08a2.1,2.1,0,0,1,.94.5A7,7,0,0,0,338.18,298.87Z" style="fill:#202020"/><path d="M340.06,298.88c.11-.19.23-.36.33-.55l-.5-.17.17.2C339.73,298.47,340,298.69,340.06,298.88Z" style="fill:#202020"/><path d="M341.66,294.26l.51-.24a6.39,6.39,0,0,1-.77.28Z" style="fill:#202020"/><polygon points="341.44 294.13 341.92 293.96 341.6 294.03 341.44 294.13" style="fill:#202020"/><path d="M352.63,288.89l.11-.13A.45.45,0,0,0,352.63,288.89Z" style="fill:#202020"/><path d="M351.81,288.75l-.07.22C351.81,288.86,351.84,288.77,351.81,288.75Z" style="fill:#202020"/><path d="M338.92,291.41c1.2.57,2.89,1.47,1.6.77l-1.28-.69C339.42,291.62,339.24,291.55,338.92,291.41Z" style="fill:#202020"/><path d="M342.69,288.52l-.07-.18a3.17,3.17,0,0,0-.1.48A3.18,3.18,0,0,1,342.69,288.52Z" style="fill:#202020"/><path d="M342.76,286.36l.41.46A2.3,2.3,0,0,0,342.76,286.36Z" style="fill:#202020"/><path d="M354.48,292.23l-.45.31C354.25,292.7,354.31,292.42,354.48,292.23Z" style="fill:#202020"/><path d="M339.19,292.51a3.26,3.26,0,0,0,.55.1C339.12,292.46,338.23,292.24,339.19,292.51Z" style="fill:#202020"/><path d="M351.66,294.23a.38.38,0,0,0,.2-.29A.3.3,0,0,0,351.66,294.23Z" style="fill:#202020"/><path d="M339.59,292.52l-.26-.07a3.46,3.46,0,0,1,.41.16C340.19,292.73,340.48,292.81,339.59,292.52Z" style="fill:#202020"/><path d="M336.49,280.69s0-.05,0-.08S336.46,280.68,336.49,280.69Z" style="fill:#202020"/><path d="M332.85,273.35a.6.6,0,0,1,.26.07C333.08,273.36,333,273.33,332.85,273.35Z" style="fill:#202020"/><path d="M341.08,293.5c.09,0,.09,0,0,0Z" style="fill:#202020"/><path d="M338.52,293.75a2.09,2.09,0,0,0-.37,0Z" style="fill:#202020"/><path d="M330.69,289.5h0C330.44,289.42,330.48,289.44,330.69,289.5Z" style="fill:#202020"/><path d="M340.8,293.54l.17,0Z" style="fill:#202020"/><path d="M341.14,293.54l0,0C341.22,293.56,341.29,293.56,341.14,293.54Z" style="fill:#202020"/><path d="M341,293.46s0,0,0,0h.11Z" style="fill:#202020"/><path d="M347.25,285.11s0,0,0-.05C347,285.16,347.08,285.17,347.25,285.11Z" style="fill:#202020"/><path d="M332.33,285.15s0,0,0,0h.05Z" style="fill:#202020"/><path d="M332.52,284.76c.46.62.23.54-.13.43l1.94,1.39C333.71,286,333.1,285.37,332.52,284.76Z" style="fill:#202020"/><path d="M354.14,288.62l-.26-.4c-.05-.78.05-.51-.21-1.12.24.75.17.83,0,.9s-.27.13-.24.91l-.17-.33s0-.08.08-.06c-.28-.77-.15,1.18-.62.92a.42.42,0,0,1-.12-.55,3.25,3.25,0,0,1-.39.35c-.1,0,0-.31.06-.27l-.57,0v0a4.21,4.21,0,0,1-.52.71c-.1-.25.11-.15.11-.35l-.41.31c0-.44.32-.76.53-.66.05-1.62-.36.34-.79-.74l.35-.11c0-.93-.26-.66-.44-1.31,0,.31.28,1.56-.17,1.85-.07-.15-.19-.25-.48,0,.16-.54-.06-.46-.32-.51l.25-.71c-.32.12-.42.49-.69.76-.27-.17-.13-.75,0-1.23-.43-.29,0,1-.6.92-.29-.41-.68-.23-1.33,0-.2-.36.21-.41.19-.65l-.48.46s0-.2.08-.29c-.3.14-.29.7-.71.75-.2.37-.26,0-.38-.34s-.25-.71-.76-.39c-.08-.25.22-.41.27-.7-1.07.28-.91.14-1.69.76l-.54-.68c.4.71-.19,1.23-.48,1.7l.28.75a2.74,2.74,0,0,0-.43.3,1.49,1.49,0,0,1,0-.75c0,.06,0,.12-.07.17a1.48,1.48,0,0,1-.11-1.2c.1.18.19.36.28.55a4.07,4.07,0,0,0,.19-1.39.31.31,0,0,1-.23.14.51.51,0,0,0,0-.31c0-.09-.1.06-.2.24l-.27-.94v.34c-.36-.27-.75-.54-1.17-.82-.56.77-.56,2-1.17,2.23a8.47,8.47,0,0,0-1-1.89c.74.9.65-.25,1.36.05a.66.66,0,0,1-.4-.63,4.87,4.87,0,0,0-.72.6c-.32-.65-.49-.52-.93-.83.94,1.3-.25.76-.37,1.11-.33-.42-.54-.85,0-.7-.6-.51-.55-.15-.43.22s.26.76-.31.34c.11,0,.22.07.1-.15,0,.36-.85,0-1-.33h.11c-.94-.22-2.4-.05-1.35.91-.15-.12-1.26-1.17-1.44-1.37.4.55.83,1.1,1.28,1.63l.35.39.18.2.29.28q.58.57,1.23,1.14c-.36-.29-.88-.68-1.47-1.12l-1.41-1c-.84-.62-1.58-1.21-1.56-1.46-.33-.1-.73-.21-.73.09a8.69,8.69,0,0,1,1.77,1.2,15.8,15.8,0,0,0-2.52-1.13c.41.14,2,1.35,1.65,1.32-.22-.18-1.77-1.15-1.85-1.28.35.41.71.8,1.08,1.19a9.64,9.64,0,0,0-2.14-1.23c.43.2-.64.06-.65.2l.72.2c-1.07-.05,1.87,1.57,1.09,1.57a12.33,12.33,0,0,0-2.89-1.36l2.4,1.51.19.12.34.19.72.39,1.33.71c.82.44,1.47.79,1.76,1l-1.22-.49c.32.21.67.41,1,.62-.74-.34-1.65-.76-2.63-1.24L330.3,288l-.37-.19a2.22,2.22,0,0,1-.29-.17l-.35-.22a15.38,15.38,0,0,1-2.08-1.53c-.77-.17-.78-.32-1.19-.21-.74-.23-.59-.44-.48-.49l-1.52.05c1.31.55.4.73,1.55,1.17a4.31,4.31,0,0,1-.13-.8c1.26.56,2.9,1.7,2,1.72a27.7,27.7,0,0,1-2.69-1.16c.35.2.15.5-.26.38l-.4-.35c-.48-.05-.21.16,0,.34s.15.16.07.19,0,0-.07,0l-.3-.09-.81-.27c-.34-.11-.58-.19-.11,0l10.56,3.76L330,289l-5.33-1.9,1.33.49a12.12,12.12,0,0,0-1.17-.37c1.87.65.1.16,1.63.59.71.31-.23,0,0,.15.64.2,1.79.61,2.95,1l2.81,1-1.52-.48c.38.26-.49.07-.18.37-.63-.17-1.37-.27-2.67-.69.53.19,1.56.52,1.72.63-2.59-.55-.49-.32-3.58-1.06,1.75.49,2.41.93,3.73,1.39,1.51.36,1.55.31,1.1.12s-1.37-.54-1.95-.75l2.79.82,1.3.4.88.28c1.15.38,2.14.71,2.8.95s-1.18-.22-.84-.12l0,0a9.29,9.29,0,0,0,1.94.65c.75.2,1.28.32.84.35-.93,0-2.15-.32-2.91-.41-.75-.31.23-.24,0-.39l-.3.09c-.48-.14-1-.38-.79-.39-1.25-.14,1,.91.63,1.36a5.26,5.26,0,0,0,1.48.23l-.31-.16c.63-.07,1.35.3,1.5.15.74.19,1.66.3,1.47.5l-.88.13c.26,0,.4-.19,0-.24.26,0,0,.14-.08.25s-.09.24.53.21a3.88,3.88,0,0,1,.45-.24c.63.11,1.63,0,1.48.21.73-.26-.13,0,.74-.31-1.12.32-.2-.24-1.41.05,1.11-.22.33-.21,1.37-.33-.33,0-.6,0-.51,0l-.32,0h0l-.46,0a6.73,6.73,0,0,1-1.55-.34c.09-.06.46.06.8.05l-.77-.15a10.12,10.12,0,0,1,1.87.17l-.06-.08c.43,0,.59,0,.14-.1.17,0-1.22-.3-.4-.12l-.82-.27.26.06,0,0c-.12-.07-.65-.25-1-.38s-.41-.21.56,0c-.38-.13-.87-.31-.62-.26l1.15.36c-.5-.19,1,.29-.29-.15,1.64.54,1.82.6,1.6.51l-.56-.21-1.85-.66-.42-.16-1.14-.42-1.74-.62c-.38-.15-.63-.22-.47-.21a5,5,0,0,1,.66.14,7.75,7.75,0,0,0,1.34.3c.61.26.39.2,0,.06,2,.72,1.4.44.8.08s-1.23-.77.08-.21c-.45-.26-.21-.18.17,0l.06,0h.05l.8.37-.79-.38s-.08-.11-.32-.3l1.43.76,0,0a10.19,10.19,0,0,0-1.69-.94l-.7-.47c2.23,1.24-.45-.43,1.88.89-1-.65-.39-.5-2.35-1.86.28.18.44.26.39.27.37.16.71.31.29-.07l1.42,1c-.53-.44-1-.88-1.51-1.31a13.41,13.41,0,0,1,2.3,1.7,3.31,3.31,0,0,1-.7-.79,8.41,8.41,0,0,0-.6-.76l.7.62c.08,0-.61-.84,0-.31a3,3,0,0,0,1.48.75,2.34,2.34,0,0,1,1.38.73c-.54-.86-.36-.65-.14-.4s.43.55.14-.09a3.81,3.81,0,0,1,.47,1c0-.17.19,0,.28.1s.14.07.09-.42c.12.38.1.53.18.76,0-.08,0-.3.05-.08a1.83,1.83,0,0,1,.07.46,8.59,8.59,0,0,0-.15-2.16c.26.55.29.49.43-.11.09.35.17.71,0,.77.15.09.59.66.78-.06,0,.2.16.12.22.05s.2.13.29.17a1.3,1.3,0,0,0,.44.15l-.07-.16c.5-.77.42,0,.79,0l0,.08c.54.92.44-.16.95.84l.16-.54c.5-1.11.43.92,1.06.66l-.06-.37c.38-.3.16,1.8.39,2,0,.12-.14.13-.25.18.49.91.32-.67.9-.67,0,.41-.43.93-.08,1.11.1.38,1.41-.93,1.75-.08,0-.33-.09-.65.21-.82.21,0,.42.33.67.56s.53.33.78-.12a.59.59,0,0,1,.05.25c.36-.22,1.12-.33,1.31-.87.16.95.73.74,1.2.39s.83-.71,1.07.15l.56-.22.54-.29,0,.18c.8-.21.78-.82.75-1.28.21,0,.21.21.25.29.7-.23.95-.45,1.06-.84l.85-3-1.1.05a4.12,4.12,0,0,0-.87.2l.3-.51c-.35.17-.38-1.44-1.43-1.35a.55.55,0,0,1,.22-.16c-1.11,0-.8-2.56-2.29-1l-.77.1c.52.56-.62.69-.57,1.15-.31-.06-.25-1,.1-.84v.12c.74-.84-.55-.85-.11-1.46-1.26-.79-2.14-2.1-3.31-2.88l-.32.81-.39-.3c0-.23.21-.66.49-.44.1-.51-.71,0-.82.19-.39-.66.76-.72.59-.84l-.27-.1v.12c-.38.18-.6.49-.93.24-.14-.29.16-.53.09-.61s0-.09-.13-.1l-.49-.39-.13.71c-.41.15-.48-.33-.63.48.25-1.23-1.75-1.52-1.79-2a1.11,1.11,0,0,1-1.27-.23c0,.18-.28.88-.58.61.89-1.31-.31-.95-.06-2.1-.1.8-1.09-.38-1.2.78-.23-.27.26-.53.21-1-1,.17-1.37-1.17-2.35-1.43-.11.18-.1.53-.43.71v-1.15c-.22,0-.68,1-.69.18,0,.18-.08.45-.22.45-1.31-1.76-3.89-.94-4.93-3.45.09.48-.09.44-.28.38.08.14-.21.46-.29.73l-.45-1c-.44.66-.84-.29-1.2.37l.29,0c-.65.68-.31,2-.79,3,.74-.77.33,1.74,1.45.68,0,.27-.25.29-.28.56.33-.38.55-.4.78-.06l-.09.09c1,.29,1.13.91,2,1.65l.16-.54c.19.17.16.35.2.52.6-.65-.58-.33,0-1.06-.2,1.15,1.5.73,1.13,2,.32.17.19-.63.51-.46l-.07.36.28-.36c.18.17.09.61,0,.88,0-.06-.18,0-.25,0,.09.5.84.26.87.42l-.21-.34c1,.14,1.89,1.11,3.06.93l.06-.26c.88-.08.38.53,1.2.71l-.06,0a.62.62,0,0,1,.7,0c-.33.17,0,.7-.36.87.95-.07.54-.16,1.48-.76l-.11.44c.35-.25.47-.43.88-.32-.47.16-.11.7-.68,1,.25,1.24,1.57-.2,1.2,1.19,1-.84-.29-.94,0-1.06,0-.43.73-.61.9-.37s-.4,1.56.19,1.89c-.05,0-.1,0-.16,0,.06.39.64-.1.65.48.53-.53.32.25.85-.51l-.64-.15c.42,0,1.28-.77,1.5,0a1.74,1.74,0,0,1-.59.3c0,.33.37,0,.37.36-.54.76-.75-.23-1.44.17-.05.43,1-.19.27.56.9-.94.47.49,1.38-.09l-.32.45c.1,0,.37-.18.48-.09l-.59.48c.64-.33.3.84.78.74-.63-.38.22-.65.18-1.16,1.18-.13-.35,1.51.65,1.84-.16,0-.25-.56.07-.66a1.3,1.3,0,0,1,.13.83c.62.28.23-.53.66-.66-.18.69.43,0,.8-.06l-.31.48c.43.73.83-.87,1.16-.11l-.69.48.42,0-.43.49c.6-.17.63,0,.84.37.16-.38.63-.81.92-.63,0,.41-.41.37,0,.58-.29.22-.65.52-.52,0-.12.14-.29.23-.42.37,0,.46.47.43.62.53a.25.25,0,0,1-.08-.22l1-.23c0,.24-.2.33-.37.41.15,0,.38-.12.58,0-.31.35-.58.74-.94.74l.84,0c-.09.19,0,.64-.22.73.14.43,1.25-.18,1.44.4a.37.37,0,0,1,.28-.09,6,6,0,0,1,.35.61l-.42-4.83c-.14,0-.18,0-.06.39a6.64,6.64,0,0,1-.56-.63,1.44,1.44,0,0,0,.34.53c.17.22.36.44.3.67s-.41-.58-.57-.75a2.52,2.52,0,0,1,.1.73c0,.19-.15.27-.34,0C354,288.59,354.1,288.7,354.14,288.62Zm-3.74.06c.12-.09.39-.4.37-.06C350.5,289.22,350.5,288.9,350.4,288.68Zm-8.75-1.56c.06-.18.23,0,.43.24C342,287.37,341.84,287.32,341.65,287.12Zm-1.72,6h-.06C340.19,293.08,340.06,293.08,339.93,293.09Zm-.26.07a3.12,3.12,0,0,0,.4,0c-.25,0-.3-.07-.28-.09C339.55,293.09,339.41,293.09,339.67,293.16Zm8.26-12.1v.18C347.67,281.26,347.8,281.17,347.93,281.06Z" style="fill:#202020"/><path d="M342.74,286.61a1,1,0,0,1,.07.34A.27.27,0,0,0,342.74,286.61Z" style="fill:#202020"/><path d="M354.56,292.17h0l-.08.07Z" style="fill:#202020"/><path d="M324.06,286.89l.58.18A3.87,3.87,0,0,0,324.06,286.89Z" style="fill:#202020"/><path d="M341.72,293.75l-.24,0c.07,0-.08.06-.17.09A1.63,1.63,0,0,1,341.72,293.75Z" style="fill:#202020"/><path d="M339.36,296.31c.08,0,.07.07.15.06l.2-.18C339.58,296.07,339.31,296.1,339.36,296.31Z" style="fill:#202020"/><path d="M339.56,294.21c-.55.11-.25.18,0,.26l0,0C340.26,294.29,339.93,294.26,339.56,294.21Z" style="fill:#202020"/><path d="M339.56,294.49c.06,0,.1.05.11.09C340,294.51,339.69,294.53,339.56,294.49Z" style="fill:#202020"/><path d="M340.37,293.37c-.15,0,1,.07.67.07.48,0,.17,0-.2-.06S340,293.27,340.37,293.37Z" style="fill:#202020"/><polygon points="337.84 294.67 338.47 294.48 337.83 294.51 337.84 294.67" style="fill:#202020"/><path d="M337.19,293.51v.22a.9.9,0,0,1,.34,0C337.42,293.64,337.43,293.51,337.19,293.51Z" style="fill:#202020"/><path d="M337.54,293.78a.56.56,0,0,0,.31.16A1.06,1.06,0,0,0,337.54,293.78Z" style="fill:#202020"/><polygon points="337.26 294.38 337.35 294.28 337.22 294.11 337.26 294.38" style="fill:#202020"/><path d="M334.74,291.5l-.64-.27c-.47-.14-.65-.15-.36,0A8.08,8.08,0,0,0,334.74,291.5Z" style="fill:#202020"/><path d="M330.5,291.09a10.53,10.53,0,0,1,1.46.2l-2.92-.61Z" style="fill:#202020"/><path d="M328.16,289.9c-.94-.24-2.4-.91-2.35-.62A8.63,8.63,0,0,0,328.16,289.9Z" style="fill:#202020"/><polygon points="328 288.21 328.1 288.26 331.54 289.48 328 288.21" style="fill:#202020"/><path d="M327.23,285c-1-.13.94.59-.07.39.29.24.82.16,1,.37C328.09,285.47,328.5,285.57,327.23,285Z" style="fill:#202020"/><path d="M328.21,285.75a.37.37,0,0,0,.1.16A.37.37,0,0,0,328.21,285.75Z" style="fill:#202020"/><polygon points="332.1 272.33 331.92 271.99 331.94 272.43 332.1 272.33" style="fill:#202020"/><path d="M331.23,272.93l.23-.73-.43.57C331.11,272.77,331.25,272.75,331.23,272.93Z" style="fill:#202020"/><path d="M350.18,287l-.07.17c0,.2,0,.23.12.29Z" style="fill:#202020"/><polygon points="352.91 288.16 352.87 288.14 352.93 288.83 352.91 288.16" style="fill:#202020"/><path d="M353.81,287.18s0,.11,0,.09S354.23,287.93,353.81,287.18Z" style="fill:#202020"/></g></g></g></svg>